<svg width="32" height="31" viewBox="0 0 32 31" fill="none" xmlns="http://www.w3.org/2000/svg">
<g clip-path="url(#clip0_499_4057)">
<path d="M30.2344 21.8135C27.8124 27.2274 22.3804 31 16.0664 31C9.77467 31 4.35737 27.2545 1.92285 21.8711C4.23639 22.3398 6.92297 22.6942 9.84375 22.9004C10.7005 24.2326 11.632 25.4438 12.5254 26.3623C12.9985 26.8488 13.5038 27.2984 14.0195 27.6406C14.4797 27.946 15.2062 28.3428 16.0674 28.3428C16.9135 28.3427 17.6327 27.9627 18.0967 27.6621C18.6132 27.3274 19.1197 26.8868 19.5947 26.4082C20.5165 25.4796 21.4775 24.244 22.3564 22.8779C25.2705 22.6599 27.9434 22.2941 30.2344 21.8135ZM19.7959 23.0273C18.3661 24.9752 16.9095 26.3153 16.0674 26.3154L15.9678 26.3086C15.1253 26.2096 13.752 24.8997 12.3955 23.041C13.5502 23.0869 14.7327 23.1123 15.9355 23.1123C17.2498 23.1123 18.5399 23.0819 19.7959 23.0273ZM12.7129 10.8584C12.5923 11.2148 12.5264 11.597 12.5264 11.9941C12.5266 13.95 14.1124 15.5352 16.0684 15.5352C18.0242 15.5351 19.6101 13.95 19.6104 11.9941C19.6104 11.6016 19.5447 11.224 19.4268 10.8711C20.9183 10.931 22.3573 11.0281 23.7266 11.1592C23.8221 11.7264 23.873 12.3294 23.873 12.9678L23.8691 13.2197C23.7911 15.6061 22.6247 18.4791 21.1797 20.9258C19.5025 21.0291 17.7455 21.085 15.9355 21.085L14.8438 21.0781C13.5331 21.062 12.2539 21.0155 11.0166 20.9443C9.49114 18.3677 8.26172 15.3342 8.26172 12.9678C8.26175 12.3234 8.31629 11.7109 8.42188 11.1328C9.79028 11.0072 11.2262 10.9133 12.7129 10.8584ZM6.33691 11.3564C6.26909 11.8774 6.2344 12.4152 6.23438 12.9678C6.23438 15.4501 7.28926 18.3041 8.59473 20.7676C5.76747 20.5149 3.22357 20.1196 1.10938 19.6191C0.746185 18.3024 0.551766 16.9156 0.551758 15.4834C0.551758 14.4002 0.662822 13.3429 0.874023 12.3223C2.4631 11.9341 4.30577 11.6066 6.33691 11.3564ZM25.8057 11.3896C27.8469 11.6502 29.6913 11.99 31.2715 12.3906C31.4736 13.3901 31.5811 14.4243 31.5811 15.4834C31.581 16.891 31.3922 18.2544 31.041 19.5508C28.9537 20.0633 26.4253 20.4712 23.6045 20.7363C24.8829 18.3038 25.9004 15.489 25.9004 12.9678C25.9004 12.4254 25.8669 11.8991 25.8057 11.3896ZM16.0664 -0.0332031C22.7643 -0.0332031 28.4701 4.21166 30.6426 10.1582C29.0583 9.80894 27.2794 9.51618 25.3555 9.29199C24.8717 7.7737 24.0767 6.46437 23.0068 5.41504C21.1615 3.60531 18.6733 2.73147 16.0674 2.73145C13.4205 2.73145 10.9386 3.68702 9.11426 5.51172C8.08531 6.54092 7.3029 7.80788 6.81543 9.25879C4.89104 9.47432 3.10694 9.75711 1.51172 10.0967C3.70086 4.18221 9.39155 -0.033175 16.0664 -0.0332031ZM16.4688 4.76758C19.398 4.89083 21.8987 6.3697 23.1035 9.06738C21.3456 8.9187 19.4931 8.82377 17.5781 8.78906C17.1201 8.57289 16.6084 8.45217 16.0684 8.45215C15.5319 8.45215 15.023 8.57074 14.5674 8.78418C12.6706 8.81275 10.8331 8.90061 9.08594 9.04102C10.3676 6.31405 13.0117 4.75879 16.0674 4.75879L16.4688 4.76758Z" fill="#666CE6"/>
<path d="M16.0674 4.75879C20.3783 4.75883 23.873 7.63339 23.873 12.9688C23.8727 18.3041 18.1271 26.3152 16.0674 26.3154C14.0078 26.3154 8.26206 18.0843 8.26172 12.9688C8.26172 7.85321 11.7564 4.75879 16.0674 4.75879ZM16.0684 8.45215C14.1123 8.45215 12.5264 10.038 12.5264 11.9941C12.5266 13.95 14.1124 15.5352 16.0684 15.5352C18.0242 15.5351 19.6101 13.95 19.6104 11.9941C19.6104 10.0381 18.0244 8.45223 16.0684 8.45215Z" fill="#666CE6"/>
</g>
<defs>
<clipPath id="clip0_499_4057">
<rect width="32" height="31" fill="white"/>
</clipPath>
</defs>
</svg>
