<svg width="41" height="40" viewBox="0 0 41 40" fill="none" xmlns="http://www.w3.org/2000/svg">
<circle cx="13.606" cy="4.36732" r="3.99465" fill="#F24E1E"/>
<path d="M28.4833 12.3171C28.4364 9.38284 26.0202 7.04132 23.0859 7.08825C21.1823 7.1187 19.6149 5.60059 19.5844 3.69697C19.554 1.79334 21.0721 0.225885 22.9757 0.195438C29.7172 0.0876139 35.2697 5.46532 35.3776 12.2068C35.4851 18.9481 30.1075 24.5009 23.3662 24.6087L19.9198 24.6638L19.8095 17.7696L23.2559 17.7144C26.19 17.6675 28.53 15.2512 28.4833 12.3171Z" fill="#2084FF"/>
<path d="M9.41016 23.6592C9.61286 23.8824 9.89339 24.1152 10.2686 24.3545C11.8971 25.3929 15.0199 26.5963 17.6016 27.4873V27.8184L13.0049 32.6914C11.7127 34.0613 9.41016 33.1469 9.41016 31.2637V23.6592ZM13.5059 10.3789C15.7678 10.3789 17.6016 12.2127 17.6016 14.4746V24.4502L10.2686 21.1953C9.98108 21.3203 9.66149 21.5154 9.41016 21.7646V14.4746C9.41016 12.2126 11.2439 10.3789 13.5059 10.3789Z" fill="#2084FF"/>
<path d="M37.7694 31.0689C42.2161 27.9868 36.9446 23.7042 33.7531 21.9482C33.9108 22.0382 36.7226 23.985 35.0524 27.5511C33.2868 31.321 20.8061 28.3955 14.3088 26.2848C20.2762 29.1637 33.3228 34.1509 37.7694 31.0689Z" fill="#94C3FF"/>
<path d="M0.334401 14.7087C-1.19935 9.52034 5.59235 9.48645 9.17992 10.1181C9.00063 10.0894 4.45531 9.91881 4.65621 13.6701C4.87884 17.827 14.5258 23.3864 20.9117 25.8132C14.5013 24.1646 1.86815 19.8971 0.334401 14.7087Z" fill="#94C3FF"/>
</svg>
